<svg width="293" height="145" viewBox="0 0 293 145" fill="none" xmlns="http://www.w3.org/2000/svg">
<circle r="64.75" transform="matrix(1 0 0 -1 65 64.9998)" fill="#6CACE4" stroke="white" stroke-width="0.5" stroke-linecap="round"/>
<circle r="44.75" transform="matrix(1 0 0 -1 64.9625 65.0373)" fill="#4495D1" stroke="white" stroke-width="0.5" stroke-linecap="round"/>
<circle r="24.75" transform="matrix(1 0 0 -1 65 65)" fill="#215E9E" stroke="white" stroke-width="0.5" stroke-linecap="round"/>
<rect x="65" y="65" width="93" height="78" rx="10" fill="white"/>
<path d="M115.915 132.92C114.745 132.92 113.792 132.53 113.055 131.75C112.362 131.013 112.015 130.017 112.015 128.76V122H79.905C78.6483 122 77.6733 121.653 76.98 120.96C76.2867 120.267 75.94 119.292 75.94 118.035V79.945C75.94 78.6883 76.3083 77.6917 77.045 76.955C77.825 76.175 78.8217 75.785 80.035 75.785C81.2917 75.785 82.2883 76.175 83.025 76.955C83.805 77.6917 84.195 78.6883 84.195 79.945V115.305H105.125V79.945C105.125 78.6883 105.493 77.6917 106.23 76.955C107.01 76.175 108.007 75.785 109.22 75.785C110.477 75.785 111.473 76.175 112.21 76.955C112.947 77.6917 113.315 78.6883 113.315 79.945V115.305H115.85C117.107 115.305 118.082 115.652 118.775 116.345C119.468 117.038 119.815 118.013 119.815 119.27V128.76C119.815 130.017 119.447 131.013 118.71 131.75C118.017 132.53 117.085 132.92 115.915 132.92ZM130.497 122C129.241 122 128.244 121.653 127.507 120.96C126.814 120.267 126.467 119.292 126.467 118.035V80.14C126.467 78.8833 126.814 77.9083 127.507 77.215C128.244 76.5217 129.241 76.175 130.497 76.175H153.962C155.219 76.175 156.194 76.4567 156.887 77.02C157.581 77.5833 157.927 78.385 157.927 79.425C157.927 80.5083 157.581 81.3533 156.887 81.96C156.194 82.5233 155.219 82.805 153.962 82.805H134.657V95.415H152.662C153.919 95.415 154.894 95.6967 155.587 96.26C156.281 96.8233 156.627 97.6467 156.627 98.73C156.627 99.77 156.281 100.572 155.587 101.135C154.894 101.698 153.919 101.98 152.662 101.98H134.657V115.37H153.962C155.219 115.37 156.194 115.673 156.887 116.28C157.581 116.843 157.927 117.667 157.927 118.75C157.927 119.79 157.581 120.592 156.887 121.155C156.194 121.718 155.219 122 153.962 122H130.497ZM200.559 75.85C201.815 75.85 202.812 76.24 203.549 77.02C204.285 77.7567 204.654 78.7533 204.654 80.01V118.165C204.654 119.422 204.264 120.44 203.484 121.22C202.747 122 201.772 122.39 200.559 122.39C199.302 122.39 198.305 122 197.569 121.22C196.832 120.44 196.464 119.422 196.464 118.165V102.11H172.999V118.165C172.999 119.422 172.609 120.44 171.829 121.22C171.092 122 170.095 122.39 168.839 122.39C167.625 122.39 166.629 122 165.849 121.22C165.112 120.44 164.744 119.422 164.744 118.165V80.01C164.744 78.7533 165.112 77.7567 165.849 77.02C166.585 76.24 167.582 75.85 168.839 75.85C170.095 75.85 171.092 76.24 171.829 77.02C172.609 77.7567 172.999 78.7533 172.999 80.01V95.35H196.464V80.01C196.464 78.7533 196.832 77.7567 197.569 77.02C198.305 76.24 199.302 75.85 200.559 75.85ZM229.524 122.325C228.224 122.325 227.184 121.957 226.404 121.22C225.668 120.44 225.299 119.422 225.299 118.165V83.065H213.469C210.869 83.065 209.569 81.9167 209.569 79.62C209.569 77.3233 210.869 76.175 213.469 76.175H245.514C248.114 76.175 249.414 77.3233 249.414 79.62C249.414 81.9167 248.114 83.065 245.514 83.065H233.684V118.165C233.684 119.422 233.294 120.44 232.514 121.22C231.778 121.957 230.781 122.325 229.524 122.325ZM258.533 122.39C257.276 122.39 256.258 122.022 255.478 121.285C254.741 120.505 254.373 119.465 254.373 118.165V80.14C254.373 78.8833 254.719 77.9083 255.413 77.215C256.149 76.5217 257.146 76.175 258.403 76.175H274.393C279.289 76.175 283.103 77.41 285.833 79.88C288.563 82.3067 289.928 85.73 289.928 90.15C289.928 94.57 288.563 98.015 285.833 100.485C283.103 102.955 279.289 104.19 274.393 104.19H262.758V118.165C262.758 119.465 262.368 120.505 261.588 121.285C260.851 122.022 259.833 122.39 258.533 122.39ZM273.353 97.755C279.116 97.755 281.998 95.2417 281.998 90.215C281.998 85.1883 279.116 82.675 273.353 82.675H262.758V97.755H273.353Z" fill="black"/>
</svg>
